<?xml version="1.0" encoding="UTF-8"?>
<!-- Created with Inkscape (http://www.inkscape.org/) -->
<svg width="800" height="300" enable-background="new" version="1.1" viewBox="0 0 211.67 79.375" xmlns="http://www.w3.org/2000/svg" xmlns:cc="http://creativecommons.org/ns#" xmlns:dc="http://purl.org/dc/elements/1.1/" xmlns:rdf="http://www.w3.org/1999/02/22-rdf-syntax-ns#" xmlns:xlink="http://www.w3.org/1999/xlink">
 <defs>
  <linearGradient id="linearGradient40" x1="23.812" x2="211.67" y1="217.63" y2="278.48" gradientUnits="userSpaceOnUse">
   <stop stop-color="#ff7a18" offset="0"/>
   <stop stop-color="#af002d" stop-opacity=".87451" offset=".34941"/>
   <stop stop-color="#ff7a18" stop-opacity=".87059" offset=".6749"/>
   <stop stop-color="#319197" stop-opacity=".8" offset="1"/>
  </linearGradient>
 </defs>
 <metadata>
  <rdf:RDF>
   <cc:Work rdf:about="">
    <dc:format>image/svg+xml</dc:format>
    <dc:type rdf:resource="http://purl.org/dc/dcmitype/StillImage"/>
    <dc:title/>
   </cc:Work>
  </rdf:RDF>
 </metadata>
 <g transform="translate(0 -217.63)">
  <path d="m211.67 278.48v-60.854h-211.67v60.854c7.1876-4.0494 15.586-5.9158 23.812-5.2917 10.053 0.76272 19.436 5.0804 29.104 7.9375 10.274 3.036 21.188 4.4375 31.75 2.6458 12.68-2.151 24.308-8.7747 37.042-10.583 11.621-1.6506 23.534 0.84311 34.396 5.2917 5.1992 2.1293 10.21 4.7007 15.425 6.7902 5.2153 2.0894 10.707 3.7043 16.325 3.7932 8.9639 0.14182 17.911-3.8347 23.812-10.583z" fill="url(#linearGradient40)" stroke="#000" stroke-width=".26458px"/>
 </g>
 <g display="none">
  <path d="m0 63.5v15.875h211.67v-15.875c-10.008 4.1143-20.949 5.9379-31.75 5.2917-12.46-0.74546-24.573-4.7089-37.042-5.2917-19.502-0.9115-38.721 6.4804-58.208 5.2917-13.482-0.82236-26.365-5.7113-39.688-7.9375-14.939-2.4963-30.436-1.5846-44.979 2.6458z" fill="none" stroke="#000" stroke-width=".26458px"/>
  <path transform="scale(.26458)" d="m69.88 287.09c1.711-6.2899 6.135-22.447 9.8311-35.904l6.7201-24.468 20.665-0.30318c18.974-0.27837 40.806 0.94004 42.222 2.3564 0.32198 0.32198-3.6785 16.148-8.8899 35.169l-9.4753 34.584-64.185 0.00197z" fill-opacity="0"/>
  <path transform="scale(.26458)" d="m33.33 298.78-32.73-0.28136 0.56605-57.908 10.638-2.9647c5.8511-1.6306 11.835-3.1966 13.298-3.4801 1.4628-0.28343 3.8564-0.75069 5.3191-1.0384s4.1422-0.71064 5.9543-0.93995c7.4723-0.94557 12.773-2.0279 14.579-2.9766 1.0538-0.55372 5.0906-1.0068 8.9708-1.0068s7.9258-0.46618 8.9904-1.0359c1.9286-1.0321 61.859-1.5063 64.801-0.51269 0.82076 0.27719 5.5614 0.75969 10.535 1.0722 10.744 0.67515 35.269 4.6887 51.596 8.4435 6.4362 1.4802 12.899 2.9399 14.362 3.2437 1.4628 0.30381 8.4043 2.0426 15.426 3.8639 7.0213 1.8213 13.963 3.5126 15.426 3.7585 1.4628 0.24583 9.733 2.1188 18.378 4.1622 8.6452 2.0434 16.065 3.6433 16.489 3.5554 0.4239-0.0879 1.4888 0.1248 2.3665 0.4727 1.8958 0.75146 20.42 3.7466 28.723 4.644 17.813 1.9254 66.699 0.95495 72.34-1.436 1.9952-0.84569 5.5769-1.2695 11.574-1.3695 2.5622-0.0427 5.4346-0.48831 6.383-0.99016 1.9359-1.0244 11.231-2.5414 14.49-2.3648 1.1702 0.0634 6.4362-0.56848 11.702-1.4042 5.266-0.83573 13.165-2.0539 17.553-2.7071 4.3883-0.65315 8.6968-1.4564 9.5745-1.7851 0.87766-0.32865 4.108-0.759 7.1785-0.95634s6.4216-0.80307 7.4468-1.3461c2.5436-1.3471 9.1114-2.1284 24.17-2.875 7.0024-0.34719 13.075-0.84316 13.494-1.1022 0.99477-0.6148 41.041-0.45963 49.307 0.19105 5.4265 0.42717 18.756 2.2061 30.851 4.1173 1.7553 0.27736 13.484 2.4066 26.064 4.7316 24.138 4.4611 24.741 4.5659 40.049 6.9557 16.189 2.5274 26.597 3.2531 46.653 3.2531 23.384 0 43.169-1.633 47.653-3.9333 1.0497-0.53839 4.1614-1.2313 6.9149-1.5397 2.7535-0.30845 7.6394-1.2565 10.857-2.1068 3.2181-0.85028 7.2511-1.7544 8.9623-2.0093 1.7112-0.25481 3.6022-0.95419 4.2021-1.5542 0.59997-0.59998 1.9535-1.0909 3.0078-1.0909s6.0618-1.4362 11.128-3.1915c5.0659-1.7553 9.3736-3.1915 9.5725-3.1915 0.19892 0 0.36166 12.686 0.36166 28.191v28.191l-27.926 0.022c-494.44 0.38866-710.83 0.45576-737.25 0.22861z" fill="#111"/>
 </g>
</svg>
